<mxfile host="65bd71144e">
    <diagram id="QBcgcHnrpa_EvvJ5O4A_" name="Page-1">
        <mxGraphModel dx="805" dy="676" grid="1" gridSize="10" guides="1" tooltips="1" connect="1" arrows="1" fold="1" page="1" pageScale="1" pageWidth="850" pageHeight="1100" math="0" shadow="0">
            <root>
                <mxCell id="0"/>
                <mxCell id="1" parent="0"/>
                <mxCell id="7" style="edgeStyle=none;html=1;entryX=0.5;entryY=0;entryDx=0;entryDy=0;fontSize=22;" edge="1" parent="1" source="2" target="3">
                    <mxGeometry relative="1" as="geometry"/>
                </mxCell>
                <mxCell id="8" style="edgeStyle=none;html=1;entryX=0.5;entryY=0;entryDx=0;entryDy=0;fontSize=22;" edge="1" parent="1" source="2" target="4">
                    <mxGeometry relative="1" as="geometry"/>
                </mxCell>
                <mxCell id="2" value="&lt;font style=&quot;font-size: 22px&quot;&gt;10&lt;/font&gt;" style="ellipse;whiteSpace=wrap;html=1;aspect=fixed;fontSize=22;" vertex="1" parent="1">
                    <mxGeometry x="385" y="160" width="80" height="80" as="geometry"/>
                </mxCell>
                <mxCell id="9" style="edgeStyle=none;html=1;entryX=0.5;entryY=0;entryDx=0;entryDy=0;fontSize=22;" edge="1" parent="1" source="3" target="5">
                    <mxGeometry relative="1" as="geometry"/>
                </mxCell>
                <mxCell id="10" style="edgeStyle=none;html=1;entryX=0.5;entryY=0;entryDx=0;entryDy=0;fontSize=22;" edge="1" parent="1" source="3" target="6">
                    <mxGeometry relative="1" as="geometry"/>
                </mxCell>
                <mxCell id="3" value="5" style="ellipse;whiteSpace=wrap;html=1;aspect=fixed;fontSize=22;" vertex="1" parent="1">
                    <mxGeometry x="305" y="280" width="80" height="80" as="geometry"/>
                </mxCell>
                <mxCell id="4" value="15" style="ellipse;whiteSpace=wrap;html=1;aspect=fixed;fontSize=22;" vertex="1" parent="1">
                    <mxGeometry x="465" y="280" width="80" height="80" as="geometry"/>
                </mxCell>
                <mxCell id="5" value="2" style="ellipse;whiteSpace=wrap;html=1;aspect=fixed;fontSize=22;" vertex="1" parent="1">
                    <mxGeometry x="225" y="400" width="80" height="80" as="geometry"/>
                </mxCell>
                <mxCell id="6" value="6" style="ellipse;whiteSpace=wrap;html=1;aspect=fixed;fontSize=22;" vertex="1" parent="1">
                    <mxGeometry x="385" y="400" width="80" height="80" as="geometry"/>
                </mxCell>
            </root>
        </mxGraphModel>
    </diagram>
</mxfile>